<svg width="238" height="265" viewBox="0 0 238 265" fill="none" xmlns="http://www.w3.org/2000/svg">
<path d="M66.0181 7.76691L143.087 1.14399C166.159 -1.21575 172.901 12.7925 174.886 32.2655L181.362 112.114C183.361 131.724 166.289 135.021 143.087 137.394L79.8904 143.858C63.3266 145.552 48.7306 135.583 47.3056 121.603L38.5958 36.1586C37.1708 22.1788 49.4543 9.461 66.0181 7.76691Z" fill="black" stroke="black" stroke-width="0.92" stroke-miterlimit="10"/>
<path d="M119 176C184.17 176 237 160.554 237 141.5C237 122.446 184.17 107 119 107C53.8304 107 1 122.446 1 141.5C1 160.554 53.8304 176 119 176Z" fill="black" stroke="black" stroke-width="1.01" stroke-miterlimit="10"/>
<path d="M176 161.648C157.235 145.868 130.776 146.231 107.213 150.584C98.4971 152.186 89.1854 154.695 83.5643 161.95C78.6246 168.359 77.6309 177.156 76.836 185.409C75.1611 178.849 72.1518 172.682 68.0353 167.452C61.8181 163.19 53.9826 171.291 53.1309 179.121C51.7683 191.817 61.2219 204.725 73.0886 206.388C73.77 224.073 83.8198 240.548 97.6454 250.373C111.499 260.197 124.388 265.004 140.996 263.825C144.857 263.553 150.364 261.8 153.856 259.986C159.506 257.084 166.092 251.159 168.42 244.961C177.05 222.077 167.739 195.475 173.871 171.684C174.581 168.994 175.461 166.213 175.063 163.431C174.666 160.65 172.366 157.96 175.972 161.648H176Z" fill="white" stroke="black" stroke-width="0.95" stroke-miterlimit="10"/>
<path d="M164.347 120.101C178.98 118.699 190.673 132.38 196.214 145.94C201.755 159.499 204.296 174.826 214 185.826C189.173 181.286 171.143 157.031 146.102 153.984C143.867 153.71 141.449 153.649 139.551 154.868C137.653 156.086 136.734 158.981 138.265 160.627C129.724 156.117 120.938 151.546 111.357 150.449C101.775 149.352 91.0301 152.521 85.826 160.596C83.0709 164.892 82.1219 170.103 82.0607 175.222C81.9383 184.272 83.6939 195.321 88.5 203C76.7448 198.247 77.1015 179.853 69.5709 169.707C68.1321 167.757 67.3572 167.14 65.0001 166.5C60.898 165.434 57.2756 168.161 55.5001 172C53.7246 175.839 52.8776 179.295 53 183.5C49.3265 171.099 49.2442 157.001 56.4994 146.305C63.7545 135.61 78.2035 129.486 90.3873 133.904C88.5199 132.777 88.7036 129.79 90.2036 128.206C91.7036 126.622 93.9383 126.043 96.0812 125.555C119.867 120.314 144.479 118.76 168.724 120.984C169.949 121.106 171.388 121.411 171.755 122.569C172.122 123.727 169.796 124.55 164.377 120.101H164.347Z" fill="black" stroke="black" stroke-width="0.95" stroke-miterlimit="10"/>
<path d="M118.5 211C128.165 211 136 203.165 136 193.5C136 183.835 128.165 176 118.5 176C108.835 176 101 183.835 101 193.5C101 203.165 108.835 211 118.5 211Z" fill="white" stroke="black" stroke-width="0.95" stroke-miterlimit="10"/>
<path d="M108.838 209C109.922 220.687 105.177 232.313 106.126 244L108.838 209Z" fill="white"/>
<path d="M108.838 209C109.922 220.687 105.177 232.313 106.126 244" stroke="black" stroke-width="0.95" stroke-miterlimit="10"/>
<path d="M156 185C157.415 182.27 160.4 180.333 163.569 180.04C166.738 179.746 170.062 181.096 172 183.503" fill="white"/>
<path d="M156 185C157.415 182.27 160.4 180.333 163.569 180.04C166.738 179.746 170.062 181.096 172 183.503" stroke="black" stroke-width="0.95" stroke-miterlimit="10"/>
<path d="M158.5 198C159.881 198 161 196.657 161 195C161 193.343 159.881 192 158.5 192C157.119 192 156 193.343 156 195C156 196.657 157.119 198 158.5 198Z" fill="black" stroke="black" stroke-width="0.95" stroke-miterlimit="10"/>
<path d="M151.249 218.751C154.946 219.609 156.299 220.721 158.163 223.232C159.095 224.472 159.786 225.966 160.868 227.047C163.032 229.208 164.325 231.306 167 232.546C159.545 234.389 153.684 230.289 147.041 226.252C145.117 229.939 141.21 232.196 137.242 232.514C133.274 232.832 129.306 231.401 126 229.081C129.186 229.081 132.312 226.983 133.695 223.932C134.236 222.692 134.537 221.325 135.198 220.149C136.28 218.178 138.444 216.939 140.578 217.002C142.713 217.066 144.787 218.465 145.779 220.499C147.251 218.369 149.356 218.274 151.249 218.751Z" fill="black" stroke="black" stroke-width="0.95" stroke-miterlimit="10"/>
<path d="M210.891 50.715C216.458 50.715 220.658 49.4446 223.75 55.0662C226.224 59.5126 225.508 64.9435 226.42 69.9299C227.331 74.9162 231.531 80.3154 236.577 79.1403C230.912 80.0613 224.922 78.6321 220.332 75.2973L218.672 95.0203C218.183 100.801 217.597 106.899 214.147 111.631C209.166 118.459 199.367 120.555 190.968 118.84C182.569 117.125 175.211 112.361 168.082 107.693L112.446 71.232C118.566 71.899 124.947 68.4689 127.649 63.0697C137.35 72.3436 148.614 80.0931 160.822 85.9052C162.84 86.858 165.022 87.8108 167.268 87.5884C169.514 87.3661 171.76 85.5876 171.598 83.3961C171.305 79.1403 176.578 76.663 180.941 76.4089C185.303 76.1548 190.219 76.7583 193.572 74.0269C197.055 71.2003 197.218 66.1822 197.837 61.8311C198.455 57.4799 201.125 54.7168 203.143 53.4147C203.99 52.8747 205.747 52.0807 206.692 51.6996C207.766 51.2867 208.515 51.1914 210.859 50.7468L210.891 50.715Z" fill="white" stroke="black" stroke-miterlimit="10"/>
</svg>
