<svg width="189" height="32" viewBox="0 0 189 32" fill="none" xmlns="http://www.w3.org/2000/svg">
<path d="M0 1.49161C0 0.772754 0.341379 0.41333 1.0421 0.41333H4.92304C5.64173 0.41333 6.00108 0.772754 6.00108 1.49161V26.292H17.5181C17.6619 26.292 17.8056 26.3639 17.9314 26.5077C18.0571 26.6514 18.129 26.8132 18.129 26.9749V29.9582C18.129 30.1559 18.0571 30.3176 17.9314 30.4254C17.8056 30.5332 17.6619 30.6051 17.5181 30.6051H1.0421C0.359346 30.6051 0 30.2457 0 29.5269V1.49161Z" fill="#8F5126"/>
<path d="M20.321 15.5092C20.321 13.2628 20.6804 11.1961 21.3991 9.32712C22.1178 7.44013 23.1239 5.80474 24.4176 4.43892C25.7112 3.05513 27.2385 1.97684 28.9813 1.18611C30.7421 0.395369 32.6466 0 34.7129 0C36.7791 0 38.7016 0.395369 40.4444 1.18611C42.2052 1.97684 43.7145 3.05513 45.0081 4.43892C46.3018 5.82271 47.3079 7.4581 48.0446 9.32712C48.7813 11.2141 49.1406 13.2808 49.1406 15.5092C49.1406 17.7377 48.7813 19.8224 48.0446 21.7273C47.3079 23.6323 46.3018 25.2677 45.0081 26.6515C43.7145 28.0353 42.1873 29.1135 40.4444 29.8863C38.6836 30.6591 36.7791 31.0544 34.7129 31.0544C32.6466 31.0544 30.7241 30.6591 28.9813 29.8863C27.2205 29.1135 25.7112 28.0353 24.4176 26.6515C23.1239 25.2677 22.1178 23.6323 21.3991 21.7273C20.6804 19.8224 20.321 17.7557 20.321 15.5092ZM26.394 15.5092C26.394 17.2345 26.6096 18.798 27.0588 20.1818C27.508 21.5836 28.1009 22.7697 28.8555 23.7761C29.6281 24.8184 30.5265 25.6091 31.5326 26.1483C32.5388 26.6874 33.5989 26.9749 34.7308 26.9749C35.8628 26.9749 36.9228 26.7054 37.929 26.1483C38.9352 25.6091 39.8335 24.8184 40.6061 23.7761C41.3608 22.7697 41.9537 21.5656 42.4208 20.1818C42.888 18.78 43.1036 17.2345 43.1036 15.5092C43.1036 13.784 42.87 12.3104 42.4208 10.8906C41.9716 9.47089 41.3608 8.26681 40.6061 7.26041C39.8335 6.21808 38.9352 5.42734 37.929 4.87023C36.9228 4.31312 35.8628 4.02558 34.7308 4.02558C33.5989 4.02558 32.5388 4.31312 31.5326 4.87023C30.5265 5.42734 29.6281 6.23605 28.8555 7.26041C28.1009 8.26681 27.508 9.47089 27.0588 10.8906C26.6096 12.3104 26.394 13.8379 26.394 15.5092Z" fill="#8F5126"/>
<path d="M53.0394 15.5092C53.0394 13.2628 53.3988 11.1961 54.1175 9.32712C54.8362 7.44013 55.8423 5.80474 57.136 4.43892C58.4296 3.05513 59.9568 1.97684 61.6997 1.18611C63.4605 0.395369 65.365 0 67.4312 0C69.4975 0 71.42 0.395369 73.1628 1.18611C74.9236 1.97684 76.4329 3.05513 77.7265 4.43892C79.0202 5.82271 80.0263 7.4581 80.763 9.32712C81.4996 11.2141 81.859 13.2808 81.859 15.5092C81.859 17.7377 81.4996 19.8224 80.763 21.7273C80.0263 23.6323 79.0202 25.2677 77.7265 26.6515C76.4329 28.0353 74.9056 29.1135 73.1628 29.8863C71.402 30.6591 69.4975 31.0544 67.4312 31.0544C65.365 31.0544 63.4425 30.6591 61.6997 29.8863C59.9389 29.1135 58.4296 28.0353 57.136 26.6515C55.8423 25.2677 54.8362 23.6323 54.1175 21.7273C53.3988 19.8224 53.0394 17.7557 53.0394 15.5092ZM59.1124 15.5092C59.1124 17.2345 59.328 18.798 59.7772 20.1818C60.2264 21.5836 60.8193 22.7697 61.5739 23.7761C62.3465 24.8184 63.2449 25.6091 64.251 26.1483C65.2572 26.6874 66.3173 26.9749 67.4492 26.9749C68.5811 26.9749 69.6412 26.7054 70.6474 26.1483C71.6536 25.6091 72.5519 24.8184 73.3245 23.7761C74.0791 22.7697 74.6721 21.5656 75.1392 20.1818C75.6064 18.78 75.822 17.2345 75.822 15.5092C75.822 13.784 75.5884 12.3104 75.1392 10.8906C74.69 9.47089 74.0791 8.26681 73.3245 7.26041C72.5519 6.21808 71.6536 5.42734 70.6474 4.87023C69.6412 4.31312 68.5811 4.02558 67.4492 4.02558C66.3173 4.02558 65.2572 4.31312 64.251 4.87023C63.2449 5.42734 62.3465 6.23605 61.5739 7.26041C60.8193 8.26681 60.2264 9.47089 59.7772 10.8906C59.328 12.3104 59.1124 13.8379 59.1124 15.5092Z" fill="#8F5126"/>
<path d="M92.1543 29.437C92.1543 29.7605 92.0465 30.0301 91.8308 30.2637C91.6152 30.4973 91.3457 30.6051 91.0403 30.6051H87.339C87.0515 30.6051 86.8 30.4973 86.5844 30.2637C86.3688 30.0301 86.261 29.7605 86.261 29.437V1.58146C86.261 1.25798 86.3688 0.98841 86.5844 0.754783C86.8 0.521156 87.0515 0.41333 87.339 0.41333H94.8853C98.2811 0.41333 100.904 1.22203 102.773 2.85742C104.642 4.47484 105.576 6.73923 105.576 9.61464C105.576 11.0523 105.324 12.3643 104.821 13.5324C104.318 14.7185 103.581 15.7249 102.629 16.5516C101.659 17.3783 100.473 18.0432 99.0537 18.5104C97.6343 18.9777 96.0172 19.2293 94.2025 19.2293H92.1722V29.455L92.1543 29.437ZM92.1543 4.33107V15.5092H94.1846C95.7297 15.5092 97.0234 15.024 98.0475 14.0715C99.0717 13.1011 99.5748 11.5915 99.5748 9.52479C99.5748 8.08708 99.1435 6.86503 98.2631 5.85864C97.3827 4.85224 96.0711 4.34905 94.3103 4.34905H92.1543V4.33107Z" fill="#E95431"/>
<path d="M128.592 29.6527C128.7 30.0301 128.628 30.2817 128.341 30.4075C128.053 30.5333 127.766 30.6051 127.478 30.6051H123.597C123.058 30.6051 122.699 30.3176 122.555 29.7425L120.219 22.1946H110.265L107.498 29.8324C107.355 30.3535 107.031 30.6051 106.51 30.6051H103.276C102.953 30.6051 102.665 30.5333 102.396 30.3715C102.126 30.2098 102.036 29.9582 102.162 29.6167L111.99 3.61222C112.332 2.60583 112.655 1.81509 112.961 1.25798C113.266 0.700866 113.787 0.41333 114.542 0.41333H117.129C117.884 0.41333 118.405 0.700866 118.71 1.25798C119.015 1.81509 119.339 2.60583 119.68 3.61222L128.61 29.6706L128.592 29.6527ZM119.069 18.4386L115.656 7.47605L111.649 18.4386H119.069Z" fill="#F5BE1B"/>
<path d="M151.5 21.889V1.52755C151.5 1.20407 151.608 0.952463 151.824 0.736807C152.039 0.521152 152.309 0.41333 152.614 0.41333H155.938C156.262 0.41333 156.513 0.521152 156.711 0.736807C156.909 0.952463 157.016 1.22204 157.016 1.52755V29.4729C157.016 29.7964 156.909 30.048 156.711 30.2637C156.513 30.4793 156.244 30.5872 155.938 30.5872H152.74C152.417 30.5872 152.147 30.4793 151.896 30.2637C151.644 30.048 151.411 29.7785 151.177 29.4729L136.695 9.23725V29.4729C136.695 29.7964 136.587 30.048 136.372 30.2637C136.156 30.4793 135.887 30.5872 135.581 30.5872H132.257C131.934 30.5872 131.682 30.4793 131.485 30.2637C131.287 30.048 131.179 29.7785 131.179 29.4729V1.52755C131.179 1.20407 131.287 0.952463 131.485 0.736807C131.682 0.521152 131.952 0.41333 132.257 0.41333H135.276C135.599 0.41333 135.869 0.521152 136.12 0.736807C136.372 0.952463 136.605 1.22204 136.839 1.52755L151.5 21.889Z" fill="#84C139"/>
<path d="M188.064 25.1239C188.064 25.9506 187.974 26.6694 187.812 27.2445C187.633 27.8196 187.363 28.3048 186.968 28.7182C186.572 29.1135 186.087 29.455 185.476 29.7066C184.866 29.9582 184.147 30.1918 183.284 30.3895C182.368 30.6231 181.398 30.7849 180.374 30.8927C179.35 31.0005 178.487 31.0365 177.768 31.0365C175.073 31.0365 172.72 30.6231 170.725 29.8144C168.731 28.9877 167.024 27.8735 165.623 26.4718C164.239 25.07 163.197 23.4166 162.478 21.5117C161.76 19.6067 161.4 17.5939 161.4 15.4374C161.4 13.4605 161.76 11.5376 162.46 9.70451C163.161 7.87144 164.257 6.21808 165.712 4.74443C167.114 3.34267 168.875 2.19251 170.959 1.31191C173.043 0.431318 175.433 0 178.146 0C179.907 0 181.685 0.251598 183.5 0.736824C184.129 0.916537 184.722 1.09626 185.243 1.31191C185.764 1.52757 186.267 1.74322 186.734 1.97685C187.165 2.21048 187.453 2.4441 187.597 2.6957C187.74 2.9473 187.74 3.27078 187.597 3.66615L187.201 5.39139C187.058 5.93053 186.824 6.21808 186.519 6.21808C186.213 6.21808 185.854 6.11025 185.476 5.87662C184.38 5.2656 183.213 4.81632 181.937 4.5108C180.679 4.20529 179.439 4.06152 178.236 4.06152C176.565 4.06152 175.073 4.34906 173.744 4.92414C172.414 5.49923 171.282 6.28996 170.33 7.29636C169.414 8.30275 168.713 9.50683 168.21 10.8906C167.707 12.2744 167.473 13.802 167.473 15.4374C167.473 17.2525 167.743 18.8699 168.3 20.3076C168.857 21.7453 169.593 22.9494 170.546 23.9378C171.462 24.9442 172.558 25.699 173.798 26.2201C175.055 26.7413 176.367 26.9929 177.751 26.9929C178.128 26.9929 178.541 26.9929 178.972 26.957C179.421 26.921 179.835 26.8851 180.248 26.8312C180.823 26.7773 181.272 26.5796 181.578 26.2741C181.883 25.9686 182.045 25.4654 182.045 24.8004V17.2525C182.045 16.5336 182.386 16.1742 183.087 16.1742H186.968C187.291 16.1742 187.543 16.282 187.758 16.4797C187.974 16.6774 188.082 16.947 188.082 17.2525V25.1419L188.064 25.1239Z" fill="#36AACF"/>
</svg>
