<svg width="16" height="19" viewBox="0 0 16 19" fill="none" xmlns="http://www.w3.org/2000/svg">
<path d="M14.2838 3.96379C13.0919 3.77173 12.1508 2.83061 11.959 1.63867H3.75918V13.6123H11.959C12.151 12.4203 13.0919 11.4795 14.2838 11.2874V3.96379ZM2.85812 1.63867C2.42595 1.63867 2.1132 1.5717 1.8649 1.82349C1.77262 1.9242 1.71611 2.05893 1.71611 2.20718V13.6123H2.85813L2.85812 1.63867ZM10.3441 12.1174C10.9375 12.1174 10.9375 13.0186 10.3441 13.0186H7.1508C6.55748 13.0186 6.55748 12.1174 7.1508 12.1174H10.3441ZM12.2295 10.4699C12.823 10.4699 12.823 11.3711 12.2295 11.3711H5.26539C4.67208 11.3711 4.67208 10.4699 5.26539 10.4699H12.2295ZM10.179 5.08572C10.7724 5.08572 10.7724 5.98719 10.179 5.98719H9.68564C9.09233 5.98719 9.09233 5.08572 9.68564 5.08572H10.179ZM7.31605 5.98719C6.72274 5.98719 6.72274 5.08572 7.31605 5.08572H7.80946C8.40277 5.08572 8.40277 5.98719 7.80946 5.98719H7.31605ZM11.2116 5.52701C11.2116 4.1659 10.1083 3.06272 8.74745 3.06272C7.38634 3.06272 6.28316 4.16604 6.28316 5.52701C6.28316 6.28959 6.665 7.08056 7.27076 7.50111C7.39572 7.5812 7.47875 7.72129 7.47875 7.88065V9.01997H7.68246V8.62771C7.68246 8.03425 8.58366 8.03425 8.58366 8.62771V9.01997H8.91138V8.62771C8.91138 8.03425 9.81258 8.03425 9.81258 8.62771V9.01997H10.0163V7.88065H10.0174C10.0176 7.43748 10.5058 7.51075 10.9469 6.64222C11.1164 6.3086 11.2119 5.92973 11.2119 5.52701H11.2116ZM8.74745 2.16152C10.6061 2.16152 12.1129 3.66821 12.1129 5.52701C12.1129 6.52839 11.6683 7.46347 10.9174 8.09789V9.47052C10.9174 9.71949 10.7155 9.92106 10.4668 9.92106H7.02795C6.77898 9.92106 6.57716 9.7195 6.57716 9.47052V8.09789C5.82648 7.46333 5.38186 6.52863 5.38186 5.52701C5.38186 3.66807 6.88855 2.16152 8.74735 2.16152H8.74745ZM6.20012 16.051V16.6866H14.2837V16.051H6.20012ZM6.20012 17.5881V18.0121C6.20012 18.2608 5.99829 18.4627 5.74957 18.4627H3.15068C2.90171 18.4627 2.69989 18.2608 2.69989 18.0121V17.5853C1.65044 17.5316 0.814453 16.6578 0.814453 15.6001V2.2074C0.814453 1.40007 1.47524 0.737671 2.28445 0.737671H14.7343C14.9833 0.737671 15.1851 0.939501 15.1851 1.18822V17.1372C15.1851 17.386 14.9832 17.5878 14.7343 17.5878H6.20022L6.20012 17.5881ZM2.69989 16.6819V16.0392C2.18427 15.9192 2.26944 15.1495 2.80235 15.1495H14.2836V14.5139H1.71583V15.6002C1.71583 16.1603 2.14855 16.6296 2.6998 16.682L2.69989 16.6819ZM3.60137 16.051V17.5616H5.29878V16.051H3.60137ZM12.8774 1.63867C13.0449 2.33189 13.5905 2.87724 14.2836 3.04493V1.63867H12.8774ZM14.2836 13.6123V12.206C13.5905 12.3735 13.0451 12.9192 12.8774 13.6123H14.2836Z" fill="#1351F0"/>
</svg>
