<svg width="18" height="17" viewBox="0 0 18 17" fill="none" xmlns="http://www.w3.org/2000/svg">
<path d="M17.3808 10.8745C17.3808 12.6275 15.9598 14.0485 14.2071 14.0485H9.89941C10.3042 14.4367 10.7643 14.7733 11.2498 15.0351C11.5746 15.2104 11.5415 15.6832 11.2027 15.8159C6.13765 17.7986 0.619019 14.0684 0.619019 8.59707C0.619019 4.46015 3.86478 1.05181 7.9997 0.853981C9.8751 0.764382 11.777 1.35219 13.3068 2.61743C13.58 2.84351 13.4884 3.31789 13.0787 3.37803C12.4728 3.49053 11.88 3.69276 11.3221 3.98512C10.703 4.30923 10.1347 4.74181 9.63622 5.27955C11.3242 5.17347 12.8437 6.23996 13.3432 7.82166C15.3755 7.2495 17.3807 8.77456 17.3807 10.8744L17.3808 10.8745ZM2.69858 8.59707C2.69858 7.59315 3.08162 6.58923 3.8477 5.82315C4.2495 5.42135 4.86006 6.03154 4.45816 6.43347C3.86056 7.03107 3.5619 7.81401 3.5619 8.59707C3.5619 9.38015 3.86056 10.1634 4.45816 10.7607C4.85996 11.1625 4.2495 11.773 3.8477 11.3711C3.08162 10.605 2.69858 9.60099 2.69858 8.59707ZM1.48237 8.59707C1.48237 13.0967 5.7098 16.3556 10.0346 15.2852C5.79791 12.1616 6.22751 5.68312 10.9244 3.22312C11.2825 3.03535 11.6535 2.88053 12.0327 2.758C9.33976 1.06607 5.79198 1.43344 3.50032 3.72524C2.15488 5.07068 1.4823 6.83413 1.4823 8.59724L1.48237 8.59707ZM16.5177 10.8745C16.5177 9.17094 14.7414 8.06914 13.2225 8.78283C12.9671 8.90283 12.6602 8.74613 12.6138 8.4626C12.3587 6.90514 10.8409 5.8656 9.28408 6.1956C9.13462 6.22734 8.99038 6.27047 8.85297 6.3239C7.58509 8.44519 7.68376 11.1554 9.14842 13.1852H14.2069C15.483 13.1852 16.5175 12.1508 16.5175 10.8746L16.5177 10.8745Z" fill="#1351F0"/>
</svg>
