<svg width="10" height="19" viewBox="0 0 10 19" fill="none" xmlns="http://www.w3.org/2000/svg">
<path d="M3.63542 4.11808H6.36487C6.61706 4.11808 6.82156 4.32259 6.82156 4.57504V17.9276C6.82156 18.1798 6.61705 18.3843 6.36487 18.3843H3.63542C3.38323 18.3843 3.17846 18.1798 3.17846 17.9276V4.57504C3.17846 4.32258 3.38324 4.11808 3.63542 4.11808ZM2.2151 5.50236C2.81644 5.50236 2.81644 6.41601 2.2151 6.41601H0.56404C-0.0372972 6.41601 -0.0372972 5.50236 0.56404 5.50236H2.2151ZM1.07404 2.5937C0.625514 2.1966 1.22819 1.5149 1.67726 1.912L2.92657 3.01504C3.37509 3.41159 2.77255 4.09384 2.32334 3.69674L1.07404 2.5937ZM7.78513 6.41587C7.18379 6.41587 7.18379 5.50223 7.78513 5.50223H9.43619C10.0375 5.50223 10.0375 6.41587 9.43619 6.41587H7.78513ZM8.323 1.9121C8.7718 1.515 9.37502 2.1971 8.92622 2.5938L7.67692 3.69684C7.22771 4.09394 6.62517 3.41184 7.0737 3.01514L8.323 1.9121ZM4.54334 1.26643C4.54334 0.665095 5.45699 0.665095 5.45699 1.26643V2.81988C5.45699 3.42122 4.54334 3.42122 4.54334 2.81988V1.26643ZM4.09201 7.0638H5.90781V5.03196H4.09201V7.0638ZM5.90781 7.97745H4.09201V17.4708H5.90781V7.97745Z" fill="#1351F0"/>
</svg>
