<svg width="16" height="16" viewBox="0 0 16 16" fill="none" xmlns="http://www.w3.org/2000/svg">
<path d="M9.84558 6.40482L9.18089 6.1738L3.58032 11.7744C4.17428 11.8895 4.49948 12.0533 4.92672 12.2199L10.0768 7.06989L9.84575 6.40492L9.84558 6.40482ZM3.17564 0.517624C3.17564 1.21431 3.7478 1.78647 4.44462 1.78647C5.052 1.78647 5.052 2.7391 4.44462 2.7391C3.7478 2.7391 3.17564 3.31126 3.17564 4.00808C3.17564 4.61545 2.22301 4.61545 2.22301 4.00808C2.22301 3.31126 1.65113 2.7391 0.954167 2.7391C0.346658 2.7391 0.346658 1.78647 0.954167 1.78647C1.65099 1.78647 2.22301 1.21431 2.22301 0.517624C2.22301 -0.0898845 3.17564 -0.0862502 3.17564 0.517624ZM2.90283 2.05928C2.82957 1.98629 2.76153 1.90781 2.69939 1.82504L2.2617 2.26297L2.69939 2.70066L3.13708 2.26297C3.05431 2.20056 2.97609 2.13254 2.90283 2.05928ZM12.3605 11.1789C12.3605 11.8593 12.919 12.4181 13.5994 12.4181C14.2121 12.4181 14.2121 13.4308 13.5994 13.4308C12.919 13.4308 12.3605 13.9892 12.3605 14.6697C12.3605 15.2821 11.3478 15.2821 11.3478 14.6697C11.3478 13.9892 10.7893 13.4308 10.1089 13.4308C9.49621 13.4308 9.49621 12.4181 10.1089 12.4181C10.7893 12.4181 11.3478 11.8593 11.3478 11.1789C11.3478 10.5662 12.3605 10.5662 12.3605 11.1789ZM12.0786 12.6997C11.9969 12.618 11.9219 12.5299 11.8542 12.436L11.3657 12.9244L11.8542 13.4127L12.3425 12.9244C12.2488 12.8564 12.1606 12.7814 12.0787 12.6997L12.0786 12.6997ZM2.76251 12.5921L2.23523 13.1191C1.64634 13.708 2.54233 14.6039 3.13122 14.0149L4.22743 12.9189C3.87227 12.7772 3.42467 12.6259 2.76251 12.5921ZM8.22216 5.84025L7.52438 5.59757C7.15996 5.47074 7.11162 4.97707 7.43706 4.77873L9.50223 3.51965L9.47799 1.20818C9.47464 0.839882 9.88887 0.623059 10.1896 0.828637L10.19 0.827967L11.9763 2.04778L14.2885 1.40133C14.629 1.30677 14.9457 1.62244 14.8475 1.96732L14.2025 4.27409L15.4221 6.06045C15.6243 6.35683 15.4225 6.78861 15.0141 6.77229L12.7303 6.74831L11.4717 8.81348C11.2732 9.13866 10.7744 9.09607 10.6477 8.71236L10.4099 8.0284L3.77737 14.661C2.3217 16.1166 0.165029 13.8974 1.58926 12.4731L8.22217 5.84056L8.22216 5.84025ZM11.0194 7.00703L11.1958 7.51449L12.0868 6.05265L12.0872 6.05305C12.168 5.92113 12.3135 5.83381 12.4794 5.83488L14.1768 5.85283L13.33 4.61278L13.3304 4.61252C13.2575 4.50564 13.2303 4.36876 13.2675 4.23445L13.7536 2.49647L12.0349 2.97702C11.9054 3.01894 11.7584 3.0026 11.6374 2.91983L10.3973 2.07328L10.4147 3.74457C10.4252 3.9081 10.347 4.07176 10.1972 4.16324L8.73539 5.05398L10.3533 5.61633C10.4798 5.66053 10.5859 5.76017 10.6336 5.89665L11.0193 7.00665L11.0194 7.00703Z" fill="#1351F0"/>
</svg>
