<svg width="18" height="18" viewBox="0 0 18 18" fill="none" xmlns="http://www.w3.org/2000/svg">
<path d="M13.5038 16.3486C13.9857 16.6956 13.4561 17.4303 12.9749 17.0833L9.31352 14.4392C8.8314 14.451 7.4096 14.4231 6.3103 13.7618L2.92592 14.8459C1.66071 15.2515 0.347534 14.4524 0.347534 12.9254V11.0879C0.347534 10.9063 0.454142 10.7496 0.60816 10.677L4.93845 8.29841C4.93738 7.58832 5.09769 6.93796 5.37799 6.36929L3.23445 0.638092C3.07092 0.198549 3.61132 -0.172834 3.96223 0.144686L8.08852 3.8784C8.87469 1.08706 10.3839 0.149829 10.3885 0.146743C10.6656 -0.0315149 11.0479 0.143127 11.0842 0.480494L11.5377 4.63935C11.8464 4.831 12.1451 5.06659 12.4278 5.34944L17.5138 10.4354C17.9367 10.8583 17.294 11.5008 16.871 11.0778L11.7851 5.99189C10.332 4.53876 8.17858 4.5365 6.82533 5.88983C6.18353 6.53163 5.78873 7.44624 5.8522 8.52181C5.8676 8.69552 5.78148 8.87043 5.61862 8.95974L1.25611 11.3556C1.25611 11.7899 1.21124 13.036 1.31852 13.3707C1.50696 13.9594 2.12972 14.1496 2.64898 13.9834L6.23732 12.8336L6.23759 12.834C6.36737 12.7925 6.51442 12.81 6.63496 12.8939C7.72058 13.6538 9.41344 13.5268 9.41814 13.5263L9.4184 13.5274C9.52019 13.5201 9.62519 13.547 9.71452 13.6115L13.5038 16.3486ZM7.30973 9.69408C6.73263 9.53993 6.96687 8.66297 7.54397 8.8174C7.97093 8.93164 8.4066 8.69405 8.54429 8.28021C8.77103 7.59422 9.58332 7.92919 9.43051 8.48405C9.17537 9.39745 8.22797 9.94013 7.30976 9.69409L7.30973 9.69408ZM8.99991 3.98517C9.52064 3.95503 10.0542 4.01918 10.5766 4.19021L10.28 1.47081C9.8841 1.9362 9.37101 2.72892 8.9999 3.98532L8.99991 3.98517ZM5.99857 5.4442C6.37438 5.01789 6.83014 4.67222 7.34069 4.42193L4.73419 2.06345L5.99875 5.4442H5.99857Z" fill="#1351F0"/>
</svg>
