<svg width="24" height="25" viewBox="0 0 24 25" fill="none" xmlns="http://www.w3.org/2000/svg">
<path d="M8.84995 17.95C8.71662 17.7834 8.64579 17.6 8.63745 17.4C8.62912 17.2 8.69995 17.025 8.84995 16.875L13.25 12.475L8.82495 8.05003C8.69162 7.9167 8.62912 7.73753 8.63745 7.51253C8.64579 7.28753 8.71662 7.10837 8.84995 6.97503C9.01662 6.80837 9.19579 6.7292 9.38745 6.73753C9.57912 6.74587 9.74995 6.82503 9.89995 6.97503L14.875 11.95C14.9583 12.0334 15.0166 12.1167 15.05 12.2C15.0833 12.2834 15.1 12.375 15.1 12.475C15.1 12.575 15.0833 12.6667 15.05 12.75C15.0166 12.8334 14.9583 12.9167 14.875 13L9.92495 17.95C9.77495 18.1 9.59995 18.1709 9.39995 18.1625C9.19995 18.1542 9.01662 18.0834 8.84995 17.95Z" fill="white"/>
</svg>
